<svg xmlns="http://www.w3.org/2000/svg" xmlns:xlink="http://www.w3.org/1999/xlink" width="500" zoomAndPan="magnify" viewBox="0 0 375 374.999991" height="500" preserveAspectRatio="xMidYMid meet" version="1.0"><defs><g/></defs><g fill="#7091e6" fill-opacity="0.302"><g transform="translate(49.113784, 236.764659)"><g><path d="M 44.875 -122.8125 L 56.328125 -122.8125 C 62.441406 -122.8125 66.316406 -121.421875 67.953125 -118.640625 C 69.585938 -115.859375 69.804688 -111.300781 68.609375 -104.96875 L 52.078125 -10.8125 C 50.003906 0.976562 45.769531 9.546875 39.375 14.890625 C 32.988281 20.242188 24.722656 22.921875 14.578125 22.921875 C 6.609375 22.921875 0.550781 21.117188 -3.59375 17.515625 C -7.75 13.921875 -9.828125 9.445312 -9.828125 4.09375 C -9.828125 0.164062 -8.648438 -2.859375 -6.296875 -4.984375 C -3.953125 -7.117188 -0.757812 -8.1875 3.28125 -8.1875 C 5.457031 -8.1875 7.007812 -8.019531 7.9375 -7.6875 C 8.863281 -7.363281 9.328125 -7.203125 9.328125 -7.203125 C 9.328125 -7.203125 8.863281 -6.054688 7.9375 -3.765625 C 7.007812 -1.472656 6.546875 1.253906 6.546875 4.421875 C 6.546875 10.753906 9.332031 13.921875 14.90625 13.921875 C 18.394531 13.921875 21.335938 12.363281 23.734375 9.25 C 26.140625 6.132812 28.050781 0.703125 29.46875 -7.046875 L 46.828125 -105.78125 C 47.046875 -107.3125 47.238281 -108.757812 47.40625 -110.125 C 47.570312 -111.488281 47.65625 -112.71875 47.65625 -113.8125 L 46.015625 -113.8125 C 38.585938 -113.8125 33.019531 -112.035156 29.3125 -108.484375 C 25.601562 -104.929688 23.75 -100.8125 23.75 -96.125 C 23.75 -93.832031 24.320312 -92.003906 25.46875 -90.640625 C 26.613281 -89.273438 28.222656 -88.59375 30.296875 -88.59375 C 31.171875 -88.59375 31.851562 -88.671875 32.34375 -88.828125 C 32.832031 -88.992188 33.078125 -89.078125 33.078125 -89.078125 C 33.078125 -89.078125 33.101562 -88.96875 33.15625 -88.75 C 33.207031 -88.53125 33.234375 -88.148438 33.234375 -87.609375 C 33.234375 -85.640625 32.195312 -83.617188 30.125 -81.546875 C 28.050781 -79.472656 24.941406 -78.4375 20.796875 -78.4375 C 15.441406 -78.4375 11.238281 -79.9375 8.1875 -82.9375 C 5.132812 -85.9375 3.609375 -89.894531 3.609375 -94.8125 C 3.609375 -102.882812 7.179688 -109.566406 14.328125 -114.859375 C 21.472656 -120.160156 31.65625 -122.8125 44.875 -122.8125 Z M 44.875 -122.8125 "/></g></g></g><g fill="#7091e6" fill-opacity="0.302"><g transform="translate(128.364205, 236.764659)"><g><path d="M 63.203125 -43.0625 L 63.53125 -44.875 L 35.046875 -44.875 L 30.125 -31.28125 C 26.957031 -22.539062 24.035156 -15.929688 21.359375 -11.453125 C 18.691406 -6.984375 16.046875 -3.957031 13.421875 -2.375 C 10.804688 -0.789062 7.96875 0 4.90625 0 C 1.53125 0 -1.21875 -1.171875 -3.34375 -3.515625 C -5.476562 -5.867188 -6.546875 -8.898438 -6.546875 -12.609375 C -6.546875 -15.441406 -6.160156 -17.515625 -5.390625 -18.828125 C -4.628906 -20.140625 -4.25 -20.796875 -4.25 -20.796875 C -4.25 -20.796875 -3.785156 -20.578125 -2.859375 -20.140625 C -1.929688 -19.703125 -0.488281 -19.484375 1.46875 -19.484375 C 5.070312 -19.484375 8.785156 -21.226562 12.609375 -24.71875 C 16.429688 -28.21875 20.363281 -34.828125 24.40625 -44.546875 C 20.6875 -44.109375 17.84375 -43.367188 15.875 -42.328125 C 13.914062 -41.296875 12.9375 -40.78125 12.9375 -40.78125 C 12.9375 -40.78125 12.5 -41.320312 11.625 -42.40625 C 10.75 -43.5 10.3125 -45.140625 10.3125 -47.328125 C 10.3125 -50.597656 11.484375 -53.210938 13.828125 -55.171875 C 16.179688 -57.140625 19.378906 -58.125 23.421875 -58.125 C 25.378906 -58.125 27.34375 -57.960938 29.3125 -57.640625 L 41.75 -92.1875 C 44.257812 -99.175781 47.207031 -104.9375 50.59375 -109.46875 C 53.976562 -114 58.265625 -117.351562 63.453125 -119.53125 C 68.640625 -121.71875 75.109375 -122.8125 82.859375 -122.8125 C 89.515625 -122.8125 93.632812 -121.363281 95.21875 -118.46875 C 96.800781 -115.582031 97.046875 -111.082031 95.953125 -104.96875 L 82.53125 -27.84375 C 81.769531 -23.144531 82.125 -19.703125 83.59375 -17.515625 C 85.070312 -15.335938 87.175781 -14.25 89.90625 -14.25 C 92.632812 -14.25 95.144531 -15.117188 97.4375 -16.859375 C 99.726562 -18.609375 101.71875 -20.601562 103.40625 -22.84375 C 105.101562 -25.082031 106.332031 -26.96875 107.09375 -28.5 C 109.488281 -28.5 110.523438 -27.078125 110.203125 -24.234375 C 109.765625 -20.960938 108.125 -17.441406 105.28125 -13.671875 C 102.445312 -9.910156 98.875 -6.691406 94.5625 -4.015625 C 90.25 -1.335938 85.582031 0 80.5625 0 C 74.78125 0 70.0625 -1.828125 66.40625 -5.484375 C 62.75 -9.140625 60.921875 -14.082031 60.921875 -20.3125 C 60.921875 -24.125 61.109375 -27.773438 61.484375 -31.265625 C 61.867188 -34.765625 62.441406 -38.695312 63.203125 -43.0625 Z M 39.140625 -56.171875 C 42.304688 -55.734375 45.90625 -55.265625 49.9375 -54.765625 C 53.976562 -54.273438 59.003906 -53.976562 65.015625 -53.875 L 74.171875 -105.78125 C 74.609375 -108.289062 74.851562 -110.253906 74.90625 -111.671875 C 74.96875 -113.097656 75 -113.8125 75 -113.8125 C 71.394531 -113.8125 68.117188 -112.800781 65.171875 -110.78125 C 62.222656 -108.757812 59.65625 -106.140625 57.46875 -102.921875 C 55.289062 -99.703125 53.546875 -96.234375 52.234375 -92.515625 Z M 39.140625 -56.171875 "/></g></g></g><g fill="#7091e6" fill-opacity="0.302"><g transform="translate(237.087912, 236.764659)"><g><path d="M 37.984375 -122.8125 L 43.234375 -122.8125 C 46.503906 -122.8125 49.367188 -121.992188 51.828125 -120.359375 C 54.285156 -118.722656 55.894531 -116.320312 56.65625 -113.15625 L 71.0625 -53.875 L 73.359375 -57.3125 C 80.671875 -68.226562 86.703125 -78.867188 91.453125 -89.234375 C 96.203125 -99.609375 98.578125 -108.835938 98.578125 -116.921875 C 98.578125 -118.773438 98.410156 -120.21875 98.078125 -121.25 C 97.753906 -122.289062 97.59375 -122.8125 97.59375 -122.8125 C 97.59375 -122.8125 98.140625 -123.054688 99.234375 -123.546875 C 100.328125 -124.035156 101.851562 -124.28125 103.8125 -124.28125 C 108.394531 -124.28125 111.722656 -123.328125 113.796875 -121.421875 C 115.878906 -119.515625 116.921875 -116.8125 116.921875 -113.3125 C 116.921875 -109.164062 115.445312 -104.390625 112.5 -98.984375 C 109.550781 -93.578125 105.59375 -87.378906 100.625 -80.390625 C 95.65625 -73.410156 90.003906 -65.28125 83.671875 -56 L 73.84375 -41.59375 L 69.59375 -17.1875 C 68.613281 -11.507812 68.34375 -7.5 68.78125 -5.15625 C 69.21875 -2.8125 69.4375 -1.640625 69.4375 -1.640625 C 69.4375 -1.640625 68.722656 -1.363281 67.296875 -0.8125 C 65.878906 -0.269531 63.476562 0 60.09375 0 C 54.09375 0 50.269531 -1.390625 48.625 -4.171875 C 46.988281 -6.953125 46.71875 -11.507812 47.8125 -17.84375 L 51.90625 -41.59375 L 34.546875 -113.484375 C 28.546875 -112.710938 24.097656 -110.6875 21.203125 -107.40625 C 18.304688 -104.132812 16.859375 -100.375 16.859375 -96.125 C 16.859375 -93.832031 17.429688 -92.003906 18.578125 -90.640625 C 19.734375 -89.273438 21.347656 -88.59375 23.421875 -88.59375 C 24.285156 -88.59375 24.960938 -88.671875 25.453125 -88.828125 C 25.953125 -88.992188 26.203125 -89.078125 26.203125 -89.078125 C 26.203125 -89.078125 26.226562 -88.96875 26.28125 -88.75 C 26.332031 -88.53125 26.359375 -88.148438 26.359375 -87.609375 C 26.359375 -85.640625 25.320312 -83.617188 23.25 -81.546875 C 21.175781 -79.472656 18.066406 -78.4375 13.921875 -78.4375 C 8.566406 -78.4375 4.359375 -79.9375 1.296875 -82.9375 C -1.753906 -85.9375 -3.28125 -89.894531 -3.28125 -94.8125 C -3.28125 -102.882812 0.289062 -109.566406 7.4375 -114.859375 C 14.59375 -120.160156 24.773438 -122.8125 37.984375 -122.8125 Z M 37.984375 -122.8125 "/></g></g></g><g fill="#7091e6" fill-opacity="0.502"><g transform="translate(43.30689, 241.301499)"><g><path d="M 44.875 -122.8125 L 56.328125 -122.8125 C 62.441406 -122.8125 66.316406 -121.421875 67.953125 -118.640625 C 69.585938 -115.859375 69.804688 -111.300781 68.609375 -104.96875 L 52.078125 -10.8125 C 50.003906 0.976562 45.769531 9.546875 39.375 14.890625 C 32.988281 20.242188 24.722656 22.921875 14.578125 22.921875 C 6.609375 22.921875 0.550781 21.117188 -3.59375 17.515625 C -7.75 13.921875 -9.828125 9.445312 -9.828125 4.09375 C -9.828125 0.164062 -8.648438 -2.859375 -6.296875 -4.984375 C -3.953125 -7.117188 -0.757812 -8.1875 3.28125 -8.1875 C 5.457031 -8.1875 7.007812 -8.019531 7.9375 -7.6875 C 8.863281 -7.363281 9.328125 -7.203125 9.328125 -7.203125 C 9.328125 -7.203125 8.863281 -6.054688 7.9375 -3.765625 C 7.007812 -1.472656 6.546875 1.253906 6.546875 4.421875 C 6.546875 10.753906 9.332031 13.921875 14.90625 13.921875 C 18.394531 13.921875 21.335938 12.363281 23.734375 9.25 C 26.140625 6.132812 28.050781 0.703125 29.46875 -7.046875 L 46.828125 -105.78125 C 47.046875 -107.3125 47.238281 -108.757812 47.40625 -110.125 C 47.570312 -111.488281 47.65625 -112.71875 47.65625 -113.8125 L 46.015625 -113.8125 C 38.585938 -113.8125 33.019531 -112.035156 29.3125 -108.484375 C 25.601562 -104.929688 23.75 -100.8125 23.75 -96.125 C 23.75 -93.832031 24.320312 -92.003906 25.46875 -90.640625 C 26.613281 -89.273438 28.222656 -88.59375 30.296875 -88.59375 C 31.171875 -88.59375 31.851562 -88.671875 32.34375 -88.828125 C 32.832031 -88.992188 33.078125 -89.078125 33.078125 -89.078125 C 33.078125 -89.078125 33.101562 -88.96875 33.15625 -88.75 C 33.207031 -88.53125 33.234375 -88.148438 33.234375 -87.609375 C 33.234375 -85.640625 32.195312 -83.617188 30.125 -81.546875 C 28.050781 -79.472656 24.941406 -78.4375 20.796875 -78.4375 C 15.441406 -78.4375 11.238281 -79.9375 8.1875 -82.9375 C 5.132812 -85.9375 3.609375 -89.894531 3.609375 -94.8125 C 3.609375 -102.882812 7.179688 -109.566406 14.328125 -114.859375 C 21.472656 -120.160156 31.65625 -122.8125 44.875 -122.8125 Z M 44.875 -122.8125 "/></g></g></g><g fill="#7091e6" fill-opacity="0.502"><g transform="translate(122.557312, 241.301499)"><g><path d="M 63.203125 -43.0625 L 63.53125 -44.875 L 35.046875 -44.875 L 30.125 -31.28125 C 26.957031 -22.539062 24.035156 -15.929688 21.359375 -11.453125 C 18.691406 -6.984375 16.046875 -3.957031 13.421875 -2.375 C 10.804688 -0.789062 7.96875 0 4.90625 0 C 1.53125 0 -1.21875 -1.171875 -3.34375 -3.515625 C -5.476562 -5.867188 -6.546875 -8.898438 -6.546875 -12.609375 C -6.546875 -15.441406 -6.160156 -17.515625 -5.390625 -18.828125 C -4.628906 -20.140625 -4.25 -20.796875 -4.25 -20.796875 C -4.25 -20.796875 -3.785156 -20.578125 -2.859375 -20.140625 C -1.929688 -19.703125 -0.488281 -19.484375 1.46875 -19.484375 C 5.070312 -19.484375 8.785156 -21.226562 12.609375 -24.71875 C 16.429688 -28.21875 20.363281 -34.828125 24.40625 -44.546875 C 20.6875 -44.109375 17.84375 -43.367188 15.875 -42.328125 C 13.914062 -41.296875 12.9375 -40.78125 12.9375 -40.78125 C 12.9375 -40.78125 12.5 -41.320312 11.625 -42.40625 C 10.75 -43.5 10.3125 -45.140625 10.3125 -47.328125 C 10.3125 -50.597656 11.484375 -53.210938 13.828125 -55.171875 C 16.179688 -57.140625 19.378906 -58.125 23.421875 -58.125 C 25.378906 -58.125 27.34375 -57.960938 29.3125 -57.640625 L 41.75 -92.1875 C 44.257812 -99.175781 47.207031 -104.9375 50.59375 -109.46875 C 53.976562 -114 58.265625 -117.351562 63.453125 -119.53125 C 68.640625 -121.71875 75.109375 -122.8125 82.859375 -122.8125 C 89.515625 -122.8125 93.632812 -121.363281 95.21875 -118.46875 C 96.800781 -115.582031 97.046875 -111.082031 95.953125 -104.96875 L 82.53125 -27.84375 C 81.769531 -23.144531 82.125 -19.703125 83.59375 -17.515625 C 85.070312 -15.335938 87.175781 -14.25 89.90625 -14.25 C 92.632812 -14.25 95.144531 -15.117188 97.4375 -16.859375 C 99.726562 -18.609375 101.71875 -20.601562 103.40625 -22.84375 C 105.101562 -25.082031 106.332031 -26.96875 107.09375 -28.5 C 109.488281 -28.5 110.523438 -27.078125 110.203125 -24.234375 C 109.765625 -20.960938 108.125 -17.441406 105.28125 -13.671875 C 102.445312 -9.910156 98.875 -6.691406 94.5625 -4.015625 C 90.25 -1.335938 85.582031 0 80.5625 0 C 74.78125 0 70.0625 -1.828125 66.40625 -5.484375 C 62.75 -9.140625 60.921875 -14.082031 60.921875 -20.3125 C 60.921875 -24.125 61.109375 -27.773438 61.484375 -31.265625 C 61.867188 -34.765625 62.441406 -38.695312 63.203125 -43.0625 Z M 39.140625 -56.171875 C 42.304688 -55.734375 45.90625 -55.265625 49.9375 -54.765625 C 53.976562 -54.273438 59.003906 -53.976562 65.015625 -53.875 L 74.171875 -105.78125 C 74.609375 -108.289062 74.851562 -110.253906 74.90625 -111.671875 C 74.96875 -113.097656 75 -113.8125 75 -113.8125 C 71.394531 -113.8125 68.117188 -112.800781 65.171875 -110.78125 C 62.222656 -108.757812 59.65625 -106.140625 57.46875 -102.921875 C 55.289062 -99.703125 53.546875 -96.234375 52.234375 -92.515625 Z M 39.140625 -56.171875 "/></g></g></g><g fill="#7091e6" fill-opacity="0.502"><g transform="translate(231.281019, 241.301499)"><g><path d="M 37.984375 -122.8125 L 43.234375 -122.8125 C 46.503906 -122.8125 49.367188 -121.992188 51.828125 -120.359375 C 54.285156 -118.722656 55.894531 -116.320312 56.65625 -113.15625 L 71.0625 -53.875 L 73.359375 -57.3125 C 80.671875 -68.226562 86.703125 -78.867188 91.453125 -89.234375 C 96.203125 -99.609375 98.578125 -108.835938 98.578125 -116.921875 C 98.578125 -118.773438 98.410156 -120.21875 98.078125 -121.25 C 97.753906 -122.289062 97.59375 -122.8125 97.59375 -122.8125 C 97.59375 -122.8125 98.140625 -123.054688 99.234375 -123.546875 C 100.328125 -124.035156 101.851562 -124.28125 103.8125 -124.28125 C 108.394531 -124.28125 111.722656 -123.328125 113.796875 -121.421875 C 115.878906 -119.515625 116.921875 -116.8125 116.921875 -113.3125 C 116.921875 -109.164062 115.445312 -104.390625 112.5 -98.984375 C 109.550781 -93.578125 105.59375 -87.378906 100.625 -80.390625 C 95.65625 -73.410156 90.003906 -65.28125 83.671875 -56 L 73.84375 -41.59375 L 69.59375 -17.1875 C 68.613281 -11.507812 68.34375 -7.5 68.78125 -5.15625 C 69.21875 -2.8125 69.4375 -1.640625 69.4375 -1.640625 C 69.4375 -1.640625 68.722656 -1.363281 67.296875 -0.8125 C 65.878906 -0.269531 63.476562 0 60.09375 0 C 54.09375 0 50.269531 -1.390625 48.625 -4.171875 C 46.988281 -6.953125 46.71875 -11.507812 47.8125 -17.84375 L 51.90625 -41.59375 L 34.546875 -113.484375 C 28.546875 -112.710938 24.097656 -110.6875 21.203125 -107.40625 C 18.304688 -104.132812 16.859375 -100.375 16.859375 -96.125 C 16.859375 -93.832031 17.429688 -92.003906 18.578125 -90.640625 C 19.734375 -89.273438 21.347656 -88.59375 23.421875 -88.59375 C 24.285156 -88.59375 24.960938 -88.671875 25.453125 -88.828125 C 25.953125 -88.992188 26.203125 -89.078125 26.203125 -89.078125 C 26.203125 -89.078125 26.226562 -88.96875 26.28125 -88.75 C 26.332031 -88.53125 26.359375 -88.148438 26.359375 -87.609375 C 26.359375 -85.640625 25.320312 -83.617188 23.25 -81.546875 C 21.175781 -79.472656 18.066406 -78.4375 13.921875 -78.4375 C 8.566406 -78.4375 4.359375 -79.9375 1.296875 -82.9375 C -1.753906 -85.9375 -3.28125 -89.894531 -3.28125 -94.8125 C -3.28125 -102.882812 0.289062 -109.566406 7.4375 -114.859375 C 14.59375 -120.160156 24.773438 -122.8125 37.984375 -122.8125 Z M 37.984375 -122.8125 "/></g></g></g><g fill="#3d52a0" fill-opacity="1"><g transform="translate(37.500002, 245.838339)"><g><path d="M 44.875 -122.8125 L 56.328125 -122.8125 C 62.441406 -122.8125 66.316406 -121.421875 67.953125 -118.640625 C 69.585938 -115.859375 69.804688 -111.300781 68.609375 -104.96875 L 52.078125 -10.8125 C 50.003906 0.976562 45.769531 9.546875 39.375 14.890625 C 32.988281 20.242188 24.722656 22.921875 14.578125 22.921875 C 6.609375 22.921875 0.550781 21.117188 -3.59375 17.515625 C -7.75 13.921875 -9.828125 9.445312 -9.828125 4.09375 C -9.828125 0.164062 -8.648438 -2.859375 -6.296875 -4.984375 C -3.953125 -7.117188 -0.757812 -8.1875 3.28125 -8.1875 C 5.457031 -8.1875 7.007812 -8.019531 7.9375 -7.6875 C 8.863281 -7.363281 9.328125 -7.203125 9.328125 -7.203125 C 9.328125 -7.203125 8.863281 -6.054688 7.9375 -3.765625 C 7.007812 -1.472656 6.546875 1.253906 6.546875 4.421875 C 6.546875 10.753906 9.332031 13.921875 14.90625 13.921875 C 18.394531 13.921875 21.335938 12.363281 23.734375 9.25 C 26.140625 6.132812 28.050781 0.703125 29.46875 -7.046875 L 46.828125 -105.78125 C 47.046875 -107.3125 47.238281 -108.757812 47.40625 -110.125 C 47.570312 -111.488281 47.65625 -112.71875 47.65625 -113.8125 L 46.015625 -113.8125 C 38.585938 -113.8125 33.019531 -112.035156 29.3125 -108.484375 C 25.601562 -104.929688 23.75 -100.8125 23.75 -96.125 C 23.75 -93.832031 24.320312 -92.003906 25.46875 -90.640625 C 26.613281 -89.273438 28.222656 -88.59375 30.296875 -88.59375 C 31.171875 -88.59375 31.851562 -88.671875 32.34375 -88.828125 C 32.832031 -88.992188 33.078125 -89.078125 33.078125 -89.078125 C 33.078125 -89.078125 33.101562 -88.96875 33.15625 -88.75 C 33.207031 -88.53125 33.234375 -88.148438 33.234375 -87.609375 C 33.234375 -85.640625 32.195312 -83.617188 30.125 -81.546875 C 28.050781 -79.472656 24.941406 -78.4375 20.796875 -78.4375 C 15.441406 -78.4375 11.238281 -79.9375 8.1875 -82.9375 C 5.132812 -85.9375 3.609375 -89.894531 3.609375 -94.8125 C 3.609375 -102.882812 7.179688 -109.566406 14.328125 -114.859375 C 21.472656 -120.160156 31.65625 -122.8125 44.875 -122.8125 Z M 44.875 -122.8125 "/></g></g></g><g fill="#3d52a0" fill-opacity="1"><g transform="translate(116.750424, 245.838339)"><g><path d="M 63.203125 -43.0625 L 63.53125 -44.875 L 35.046875 -44.875 L 30.125 -31.28125 C 26.957031 -22.539062 24.035156 -15.929688 21.359375 -11.453125 C 18.691406 -6.984375 16.046875 -3.957031 13.421875 -2.375 C 10.804688 -0.789062 7.96875 0 4.90625 0 C 1.53125 0 -1.21875 -1.171875 -3.34375 -3.515625 C -5.476562 -5.867188 -6.546875 -8.898438 -6.546875 -12.609375 C -6.546875 -15.441406 -6.160156 -17.515625 -5.390625 -18.828125 C -4.628906 -20.140625 -4.25 -20.796875 -4.25 -20.796875 C -4.25 -20.796875 -3.785156 -20.578125 -2.859375 -20.140625 C -1.929688 -19.703125 -0.488281 -19.484375 1.46875 -19.484375 C 5.070312 -19.484375 8.785156 -21.226562 12.609375 -24.71875 C 16.429688 -28.21875 20.363281 -34.828125 24.40625 -44.546875 C 20.6875 -44.109375 17.84375 -43.367188 15.875 -42.328125 C 13.914062 -41.296875 12.9375 -40.78125 12.9375 -40.78125 C 12.9375 -40.78125 12.5 -41.320312 11.625 -42.40625 C 10.75 -43.5 10.3125 -45.140625 10.3125 -47.328125 C 10.3125 -50.597656 11.484375 -53.210938 13.828125 -55.171875 C 16.179688 -57.140625 19.378906 -58.125 23.421875 -58.125 C 25.378906 -58.125 27.34375 -57.960938 29.3125 -57.640625 L 41.75 -92.1875 C 44.257812 -99.175781 47.207031 -104.9375 50.59375 -109.46875 C 53.976562 -114 58.265625 -117.351562 63.453125 -119.53125 C 68.640625 -121.71875 75.109375 -122.8125 82.859375 -122.8125 C 89.515625 -122.8125 93.632812 -121.363281 95.21875 -118.46875 C 96.800781 -115.582031 97.046875 -111.082031 95.953125 -104.96875 L 82.53125 -27.84375 C 81.769531 -23.144531 82.125 -19.703125 83.59375 -17.515625 C 85.070312 -15.335938 87.175781 -14.25 89.90625 -14.25 C 92.632812 -14.25 95.144531 -15.117188 97.4375 -16.859375 C 99.726562 -18.609375 101.71875 -20.601562 103.40625 -22.84375 C 105.101562 -25.082031 106.332031 -26.96875 107.09375 -28.5 C 109.488281 -28.5 110.523438 -27.078125 110.203125 -24.234375 C 109.765625 -20.960938 108.125 -17.441406 105.28125 -13.671875 C 102.445312 -9.910156 98.875 -6.691406 94.5625 -4.015625 C 90.25 -1.335938 85.582031 0 80.5625 0 C 74.78125 0 70.0625 -1.828125 66.40625 -5.484375 C 62.75 -9.140625 60.921875 -14.082031 60.921875 -20.3125 C 60.921875 -24.125 61.109375 -27.773438 61.484375 -31.265625 C 61.867188 -34.765625 62.441406 -38.695312 63.203125 -43.0625 Z M 39.140625 -56.171875 C 42.304688 -55.734375 45.90625 -55.265625 49.9375 -54.765625 C 53.976562 -54.273438 59.003906 -53.976562 65.015625 -53.875 L 74.171875 -105.78125 C 74.609375 -108.289062 74.851562 -110.253906 74.90625 -111.671875 C 74.96875 -113.097656 75 -113.8125 75 -113.8125 C 71.394531 -113.8125 68.117188 -112.800781 65.171875 -110.78125 C 62.222656 -108.757812 59.65625 -106.140625 57.46875 -102.921875 C 55.289062 -99.703125 53.546875 -96.234375 52.234375 -92.515625 Z M 39.140625 -56.171875 "/></g></g></g><g fill="#3d52a0" fill-opacity="1"><g transform="translate(225.47413, 245.838339)"><g><path d="M 37.984375 -122.8125 L 43.234375 -122.8125 C 46.503906 -122.8125 49.367188 -121.992188 51.828125 -120.359375 C 54.285156 -118.722656 55.894531 -116.320312 56.65625 -113.15625 L 71.0625 -53.875 L 73.359375 -57.3125 C 80.671875 -68.226562 86.703125 -78.867188 91.453125 -89.234375 C 96.203125 -99.609375 98.578125 -108.835938 98.578125 -116.921875 C 98.578125 -118.773438 98.410156 -120.21875 98.078125 -121.25 C 97.753906 -122.289062 97.59375 -122.8125 97.59375 -122.8125 C 97.59375 -122.8125 98.140625 -123.054688 99.234375 -123.546875 C 100.328125 -124.035156 101.851562 -124.28125 103.8125 -124.28125 C 108.394531 -124.28125 111.722656 -123.328125 113.796875 -121.421875 C 115.878906 -119.515625 116.921875 -116.8125 116.921875 -113.3125 C 116.921875 -109.164062 115.445312 -104.390625 112.5 -98.984375 C 109.550781 -93.578125 105.59375 -87.378906 100.625 -80.390625 C 95.65625 -73.410156 90.003906 -65.28125 83.671875 -56 L 73.84375 -41.59375 L 69.59375 -17.1875 C 68.613281 -11.507812 68.34375 -7.5 68.78125 -5.15625 C 69.21875 -2.8125 69.4375 -1.640625 69.4375 -1.640625 C 69.4375 -1.640625 68.722656 -1.363281 67.296875 -0.8125 C 65.878906 -0.269531 63.476562 0 60.09375 0 C 54.09375 0 50.269531 -1.390625 48.625 -4.171875 C 46.988281 -6.953125 46.71875 -11.507812 47.8125 -17.84375 L 51.90625 -41.59375 L 34.546875 -113.484375 C 28.546875 -112.710938 24.097656 -110.6875 21.203125 -107.40625 C 18.304688 -104.132812 16.859375 -100.375 16.859375 -96.125 C 16.859375 -93.832031 17.429688 -92.003906 18.578125 -90.640625 C 19.734375 -89.273438 21.347656 -88.59375 23.421875 -88.59375 C 24.285156 -88.59375 24.960938 -88.671875 25.453125 -88.828125 C 25.953125 -88.992188 26.203125 -89.078125 26.203125 -89.078125 C 26.203125 -89.078125 26.226562 -88.96875 26.28125 -88.75 C 26.332031 -88.53125 26.359375 -88.148438 26.359375 -87.609375 C 26.359375 -85.640625 25.320312 -83.617188 23.25 -81.546875 C 21.175781 -79.472656 18.066406 -78.4375 13.921875 -78.4375 C 8.566406 -78.4375 4.359375 -79.9375 1.296875 -82.9375 C -1.753906 -85.9375 -3.28125 -89.894531 -3.28125 -94.8125 C -3.28125 -102.882812 0.289062 -109.566406 7.4375 -114.859375 C 14.59375 -120.160156 24.773438 -122.8125 37.984375 -122.8125 Z M 37.984375 -122.8125 "/></g></g></g></svg>